<?xml version="1.0" encoding="utf-8"?>
<!-- Generator: Adobe Illustrator 25.0.0, SVG Export Plug-In . SVG Version: 6.00 Build 0)  -->
<svg version="1.1" id="logo" xmlns="http://www.w3.org/2000/svg" xmlns:xlink="http://www.w3.org/1999/xlink" x="0px"
	y="0px" viewBox="0 0 931.5 150.5" style="enable-background:new 0 0 931.5 150.5;" xml:space="preserve">
	<style type="text/css">
		.st0 {
			fill: #297AD6;
		}
		.st1{
			fill: #ffffff;
		}
	</style>
	<path class="st1" d="M36,148V49.1H0V13.7h112.5v35.5H76.7V148H36z" />
	<path
		class="st1" d="M116.2,148V50.8h36.3v11.1c6-7,18.7-13.5,29.8-13.5V83c-2.7-0.7-5.5-1.1-8.2-1c-7.7,0-17.5,2-21.6,6.8V148L116.2,148z" />
	<path class="st1" d="M192.5,20.3c0-11.2,9.1-20.3,20.3-20.3s20.3,9.1,20.3,20.3c0,11.2-9.1,20.3-20.3,20.3c0,0,0,0,0,0c-11.2,0-20.3-9-20.3-20.2
	C192.5,20.4,192.5,20.4,192.5,20.3z M194.7,148V50.8H231V148H194.7z" />
	<path class="st1" d="M251.1,148V13.7h36.2V148H251.1z" />
	<path class="st1" d="M307.5,148V13.7h36.3V148H307.5z" />
	<path class="st1" d="M410.2,48.3c28.6,0,50.5,20.5,50.5,54.8v7.5h-66.1c2,6.2,9.1,12.3,21.4,12.3c8.3,0,17.1-3,22-6.8l14.9,22.4
	c-9.7,8.2-27,12.1-41.5,12.1c-30.4,0-54.2-19.1-54.2-51.2C357.3,71.1,378.8,48.3,410.2,48.3z M394.3,87.6h32
	c-1-4.2-4.4-11.7-16.1-11.7C399.1,75.9,395.5,83.2,394.3,87.6z" />
	<path class="st1" d="M539.1,148V94.3c0-10.1-5.4-13.9-14.1-13.9c-8.3,0-12.5,4.2-15.5,7.7v60h-36.2V50.8h36.2v11.1c5.6-6.5,16.3-13.5,33.4-13.5
	c22.6,0,32.4,13.7,32.4,30.6V148H539.1z" />
	<path class="st1" d="M643.5,48.3c22.2,0,35.8,10.1,41.3,18.3l-23.4,22c-3-4.6-8.7-8.3-16.3-8.3c-10.3,0-19.1,6.5-19.1,18.9s8.9,19.1,19.1,19.1
	c6.5,0.1,12.6-3.1,16.3-8.5l23.4,22.2c-5.4,8.1-19.1,18.3-41.3,18.3c-30.8,0-54.6-20.1-54.6-51.2C588.9,68.5,612.7,48.3,643.5,48.3z
	" />
	<path class="st1" d="M743,48.3c28.6,0,50.5,20.5,50.5,54.8v7.5h-66.1c2,6.2,9.1,12.3,21.3,12.3c8.3,0,17.1-3,22-6.8l14.9,22.4
	c-9.7,8.2-27,12-41.5,12c-30.4,0-54.2-19.1-54.2-51.1C690,71.1,711.5,48.3,743,48.3z M727.1,87.6h32c-1-4.2-4.4-11.7-16.1-11.7
	C731.9,75.9,728.3,83.2,727.1,87.6L727.1,87.6z" />
	<path class="st0" d="M925.4,93.4L830,148.8c-8.1,4.7-18.5-1-18.5-10.5V27.6c0-9.5,10.4-15.1,18.5-10.4l95.4,55.4c5.8,3.3,7.8,10.6,4.5,16.4
	C928.9,90.7,927.3,92.3,925.4,93.4" />
</svg>